<mxfile host="Electron" modified="2024-05-10T02:13:48.492Z" agent="Mozilla/5.0 (Windows NT 10.0; Win64; x64) AppleWebKit/537.36 (KHTML, like Gecko) draw.io/24.2.5 Chrome/120.0.6099.109 Electron/28.1.0 Safari/537.36" etag="snMlQWdyTs85ppErR49Q" version="24.2.5" type="device">
  <diagram name="第 1 页" id="yLWln12jyo94z3JDTWQN">
    <mxGraphModel dx="2074" dy="1205" grid="1" gridSize="10" guides="1" tooltips="1" connect="1" arrows="1" fold="1" page="1" pageScale="1" pageWidth="827" pageHeight="1169" math="0" shadow="0">
      <root>
        <mxCell id="0" />
        <mxCell id="1" parent="0" />
        <mxCell id="CnyepT9j-5IPscK7m1z1-77" value="" style="rounded=0;whiteSpace=wrap;html=1;fontSize=15;fillColor=#dae8fc;strokeColor=#6c8ebf;" parent="1" vertex="1">
          <mxGeometry x="105" y="460" width="590" height="580" as="geometry" />
        </mxCell>
        <mxCell id="CnyepT9j-5IPscK7m1z1-1" value="" style="shape=table;startSize=0;container=1;collapsible=0;childLayout=tableLayout;fontSize=16;" parent="1" vertex="1">
          <mxGeometry x="170" y="545" width="460" height="40" as="geometry" />
        </mxCell>
        <mxCell id="CnyepT9j-5IPscK7m1z1-2" value="" style="shape=tableRow;horizontal=0;startSize=0;swimlaneHead=0;swimlaneBody=0;strokeColor=inherit;top=0;left=0;bottom=0;right=0;collapsible=0;dropTarget=0;fillColor=none;points=[[0,0.5],[1,0.5]];portConstraint=eastwest;fontSize=16;" parent="CnyepT9j-5IPscK7m1z1-1" vertex="1">
          <mxGeometry width="460" height="40" as="geometry" />
        </mxCell>
        <mxCell id="CnyepT9j-5IPscK7m1z1-3" value="Vetex" style="shape=partialRectangle;html=1;whiteSpace=wrap;connectable=0;strokeColor=#b85450;overflow=hidden;fillColor=#f8cecc;top=0;left=0;bottom=0;right=0;pointerEvents=1;fontSize=16;" parent="CnyepT9j-5IPscK7m1z1-2" vertex="1">
          <mxGeometry width="51" height="40" as="geometry">
            <mxRectangle width="51" height="40" as="alternateBounds" />
          </mxGeometry>
        </mxCell>
        <mxCell id="CnyepT9j-5IPscK7m1z1-4" value="Vetex" style="shape=partialRectangle;html=1;whiteSpace=wrap;connectable=0;strokeColor=#b85450;overflow=hidden;fillColor=#f8cecc;top=0;left=0;bottom=0;right=0;pointerEvents=1;fontSize=16;" parent="CnyepT9j-5IPscK7m1z1-2" vertex="1">
          <mxGeometry x="51" width="51" height="40" as="geometry">
            <mxRectangle width="51" height="40" as="alternateBounds" />
          </mxGeometry>
        </mxCell>
        <mxCell id="CnyepT9j-5IPscK7m1z1-5" value="Vetex" style="shape=partialRectangle;html=1;whiteSpace=wrap;connectable=0;strokeColor=#b85450;overflow=hidden;fillColor=#f8cecc;top=0;left=0;bottom=0;right=0;pointerEvents=1;fontSize=16;" parent="CnyepT9j-5IPscK7m1z1-2" vertex="1">
          <mxGeometry x="102" width="51" height="40" as="geometry">
            <mxRectangle width="51" height="40" as="alternateBounds" />
          </mxGeometry>
        </mxCell>
        <mxCell id="CnyepT9j-5IPscK7m1z1-14" value="Vetex" style="shape=partialRectangle;html=1;whiteSpace=wrap;connectable=0;strokeColor=#b85450;overflow=hidden;fillColor=#f8cecc;top=0;left=0;bottom=0;right=0;pointerEvents=1;fontSize=16;" parent="CnyepT9j-5IPscK7m1z1-2" vertex="1">
          <mxGeometry x="153" width="51" height="40" as="geometry">
            <mxRectangle width="51" height="40" as="alternateBounds" />
          </mxGeometry>
        </mxCell>
        <mxCell id="CnyepT9j-5IPscK7m1z1-15" value="Vetex" style="shape=partialRectangle;html=1;whiteSpace=wrap;connectable=0;strokeColor=#b85450;overflow=hidden;fillColor=#f8cecc;top=0;left=0;bottom=0;right=0;pointerEvents=1;fontSize=16;" parent="CnyepT9j-5IPscK7m1z1-2" vertex="1">
          <mxGeometry x="204" width="52" height="40" as="geometry">
            <mxRectangle width="52" height="40" as="alternateBounds" />
          </mxGeometry>
        </mxCell>
        <mxCell id="CnyepT9j-5IPscK7m1z1-16" value="Vetex" style="shape=partialRectangle;html=1;whiteSpace=wrap;connectable=0;strokeColor=#b85450;overflow=hidden;fillColor=#f8cecc;top=0;left=0;bottom=0;right=0;pointerEvents=1;fontSize=16;" parent="CnyepT9j-5IPscK7m1z1-2" vertex="1">
          <mxGeometry x="256" width="51" height="40" as="geometry">
            <mxRectangle width="51" height="40" as="alternateBounds" />
          </mxGeometry>
        </mxCell>
        <mxCell id="CnyepT9j-5IPscK7m1z1-17" value="Vetex" style="shape=partialRectangle;html=1;whiteSpace=wrap;connectable=0;strokeColor=#b85450;overflow=hidden;fillColor=#f8cecc;top=0;left=0;bottom=0;right=0;pointerEvents=1;fontSize=16;" parent="CnyepT9j-5IPscK7m1z1-2" vertex="1">
          <mxGeometry x="307" width="51" height="40" as="geometry">
            <mxRectangle width="51" height="40" as="alternateBounds" />
          </mxGeometry>
        </mxCell>
        <mxCell id="CnyepT9j-5IPscK7m1z1-19" value="Vetex" style="shape=partialRectangle;html=1;whiteSpace=wrap;connectable=0;strokeColor=#b85450;overflow=hidden;fillColor=#f8cecc;top=0;left=0;bottom=0;right=0;pointerEvents=1;fontSize=16;" parent="CnyepT9j-5IPscK7m1z1-2" vertex="1">
          <mxGeometry x="358" width="51" height="40" as="geometry">
            <mxRectangle width="51" height="40" as="alternateBounds" />
          </mxGeometry>
        </mxCell>
        <mxCell id="CnyepT9j-5IPscK7m1z1-18" value="Vetex" style="shape=partialRectangle;html=1;whiteSpace=wrap;connectable=0;strokeColor=#b85450;overflow=hidden;fillColor=#f8cecc;top=0;left=0;bottom=0;right=0;pointerEvents=1;fontSize=16;" parent="CnyepT9j-5IPscK7m1z1-2" vertex="1">
          <mxGeometry x="409" width="51" height="40" as="geometry">
            <mxRectangle width="51" height="40" as="alternateBounds" />
          </mxGeometry>
        </mxCell>
        <mxCell id="CnyepT9j-5IPscK7m1z1-21" value="" style="shape=curlyBracket;whiteSpace=wrap;html=1;rounded=1;flipH=1;labelPosition=right;verticalLabelPosition=middle;align=left;verticalAlign=middle;direction=south;" parent="1" vertex="1">
          <mxGeometry x="170" y="525" width="150" height="20" as="geometry" />
        </mxCell>
        <mxCell id="CnyepT9j-5IPscK7m1z1-22" value="" style="shape=curlyBracket;whiteSpace=wrap;html=1;rounded=1;flipH=1;labelPosition=right;verticalLabelPosition=middle;align=left;verticalAlign=middle;direction=south;" parent="1" vertex="1">
          <mxGeometry x="320" y="525" width="160" height="20" as="geometry" />
        </mxCell>
        <mxCell id="CnyepT9j-5IPscK7m1z1-23" value="" style="shape=curlyBracket;whiteSpace=wrap;html=1;rounded=1;flipH=1;labelPosition=right;verticalLabelPosition=middle;align=left;verticalAlign=middle;direction=south;" parent="1" vertex="1">
          <mxGeometry x="480" y="525" width="150" height="20" as="geometry" />
        </mxCell>
        <mxCell id="CnyepT9j-5IPscK7m1z1-24" value="LOD0" style="text;html=1;align=center;verticalAlign=middle;whiteSpace=wrap;rounded=0;fontSize=15;" parent="1" vertex="1">
          <mxGeometry x="215" y="495" width="60" height="30" as="geometry" />
        </mxCell>
        <mxCell id="CnyepT9j-5IPscK7m1z1-25" value="LOD1" style="text;html=1;align=center;verticalAlign=middle;whiteSpace=wrap;rounded=0;fontSize=15;" parent="1" vertex="1">
          <mxGeometry x="370" y="495" width="60" height="30" as="geometry" />
        </mxCell>
        <mxCell id="CnyepT9j-5IPscK7m1z1-26" value="LOD2" style="text;html=1;align=center;verticalAlign=middle;whiteSpace=wrap;rounded=0;fontSize=15;" parent="1" vertex="1">
          <mxGeometry x="530" y="495" width="60" height="30" as="geometry" />
        </mxCell>
        <mxCell id="CnyepT9j-5IPscK7m1z1-27" value="" style="shape=table;startSize=0;container=1;collapsible=0;childLayout=tableLayout;fontSize=16;" parent="1" vertex="1">
          <mxGeometry x="170" y="630" width="460" height="40" as="geometry" />
        </mxCell>
        <mxCell id="CnyepT9j-5IPscK7m1z1-28" value="" style="shape=tableRow;horizontal=0;startSize=0;swimlaneHead=0;swimlaneBody=0;strokeColor=inherit;top=0;left=0;bottom=0;right=0;collapsible=0;dropTarget=0;fillColor=none;points=[[0,0.5],[1,0.5]];portConstraint=eastwest;fontSize=16;" parent="CnyepT9j-5IPscK7m1z1-27" vertex="1">
          <mxGeometry width="460" height="40" as="geometry" />
        </mxCell>
        <mxCell id="CnyepT9j-5IPscK7m1z1-29" value="Index" style="shape=partialRectangle;html=1;whiteSpace=wrap;connectable=0;strokeColor=#d6b656;overflow=hidden;fillColor=#fff2cc;top=0;left=0;bottom=0;right=0;pointerEvents=1;fontSize=16;" parent="CnyepT9j-5IPscK7m1z1-28" vertex="1">
          <mxGeometry width="51" height="40" as="geometry">
            <mxRectangle width="51" height="40" as="alternateBounds" />
          </mxGeometry>
        </mxCell>
        <mxCell id="CnyepT9j-5IPscK7m1z1-30" value="Index" style="shape=partialRectangle;html=1;whiteSpace=wrap;connectable=0;strokeColor=#d6b656;overflow=hidden;fillColor=#fff2cc;top=0;left=0;bottom=0;right=0;pointerEvents=1;fontSize=16;" parent="CnyepT9j-5IPscK7m1z1-28" vertex="1">
          <mxGeometry x="51" width="51" height="40" as="geometry">
            <mxRectangle width="51" height="40" as="alternateBounds" />
          </mxGeometry>
        </mxCell>
        <mxCell id="CnyepT9j-5IPscK7m1z1-31" value="Index" style="shape=partialRectangle;html=1;whiteSpace=wrap;connectable=0;strokeColor=#d6b656;overflow=hidden;fillColor=#fff2cc;top=0;left=0;bottom=0;right=0;pointerEvents=1;fontSize=16;" parent="CnyepT9j-5IPscK7m1z1-28" vertex="1">
          <mxGeometry x="102" width="51" height="40" as="geometry">
            <mxRectangle width="51" height="40" as="alternateBounds" />
          </mxGeometry>
        </mxCell>
        <mxCell id="CnyepT9j-5IPscK7m1z1-32" value="Index" style="shape=partialRectangle;html=1;whiteSpace=wrap;connectable=0;strokeColor=#d6b656;overflow=hidden;fillColor=#fff2cc;top=0;left=0;bottom=0;right=0;pointerEvents=1;fontSize=16;" parent="CnyepT9j-5IPscK7m1z1-28" vertex="1">
          <mxGeometry x="153" width="51" height="40" as="geometry">
            <mxRectangle width="51" height="40" as="alternateBounds" />
          </mxGeometry>
        </mxCell>
        <mxCell id="CnyepT9j-5IPscK7m1z1-33" value="Index" style="shape=partialRectangle;html=1;whiteSpace=wrap;connectable=0;strokeColor=#d6b656;overflow=hidden;fillColor=#fff2cc;top=0;left=0;bottom=0;right=0;pointerEvents=1;fontSize=16;" parent="CnyepT9j-5IPscK7m1z1-28" vertex="1">
          <mxGeometry x="204" width="52" height="40" as="geometry">
            <mxRectangle width="52" height="40" as="alternateBounds" />
          </mxGeometry>
        </mxCell>
        <mxCell id="CnyepT9j-5IPscK7m1z1-34" value="Index" style="shape=partialRectangle;html=1;whiteSpace=wrap;connectable=0;strokeColor=#d6b656;overflow=hidden;fillColor=#fff2cc;top=0;left=0;bottom=0;right=0;pointerEvents=1;fontSize=16;" parent="CnyepT9j-5IPscK7m1z1-28" vertex="1">
          <mxGeometry x="256" width="51" height="40" as="geometry">
            <mxRectangle width="51" height="40" as="alternateBounds" />
          </mxGeometry>
        </mxCell>
        <mxCell id="CnyepT9j-5IPscK7m1z1-35" value="Index" style="shape=partialRectangle;html=1;whiteSpace=wrap;connectable=0;strokeColor=#d6b656;overflow=hidden;fillColor=#fff2cc;top=0;left=0;bottom=0;right=0;pointerEvents=1;fontSize=16;" parent="CnyepT9j-5IPscK7m1z1-28" vertex="1">
          <mxGeometry x="307" width="51" height="40" as="geometry">
            <mxRectangle width="51" height="40" as="alternateBounds" />
          </mxGeometry>
        </mxCell>
        <mxCell id="CnyepT9j-5IPscK7m1z1-36" value="Index" style="shape=partialRectangle;html=1;whiteSpace=wrap;connectable=0;strokeColor=#d6b656;overflow=hidden;fillColor=#fff2cc;top=0;left=0;bottom=0;right=0;pointerEvents=1;fontSize=16;" parent="CnyepT9j-5IPscK7m1z1-28" vertex="1">
          <mxGeometry x="358" width="51" height="40" as="geometry">
            <mxRectangle width="51" height="40" as="alternateBounds" />
          </mxGeometry>
        </mxCell>
        <mxCell id="CnyepT9j-5IPscK7m1z1-37" value="Index" style="shape=partialRectangle;html=1;whiteSpace=wrap;connectable=0;strokeColor=#d6b656;overflow=hidden;fillColor=#fff2cc;top=0;left=0;bottom=0;right=0;pointerEvents=1;fontSize=16;" parent="CnyepT9j-5IPscK7m1z1-28" vertex="1">
          <mxGeometry x="409" width="51" height="40" as="geometry">
            <mxRectangle width="51" height="40" as="alternateBounds" />
          </mxGeometry>
        </mxCell>
        <mxCell id="CnyepT9j-5IPscK7m1z1-38" value="" style="shape=table;startSize=0;container=1;collapsible=0;childLayout=tableLayout;fontSize=16;" parent="1" vertex="1">
          <mxGeometry x="175" y="730" width="450" height="40" as="geometry" />
        </mxCell>
        <mxCell id="CnyepT9j-5IPscK7m1z1-39" value="" style="shape=tableRow;horizontal=0;startSize=0;swimlaneHead=0;swimlaneBody=0;strokeColor=inherit;top=0;left=0;bottom=0;right=0;collapsible=0;dropTarget=0;fillColor=none;points=[[0,0.5],[1,0.5]];portConstraint=eastwest;fontSize=16;" parent="CnyepT9j-5IPscK7m1z1-38" vertex="1">
          <mxGeometry width="450" height="40" as="geometry" />
        </mxCell>
        <mxCell id="CnyepT9j-5IPscK7m1z1-40" value="Cluster" style="shape=partialRectangle;html=1;whiteSpace=wrap;connectable=0;strokeColor=#82b366;overflow=hidden;fillColor=#d5e8d4;top=0;left=0;bottom=0;right=0;pointerEvents=1;fontSize=16;" parent="CnyepT9j-5IPscK7m1z1-39" vertex="1">
          <mxGeometry width="90" height="40" as="geometry">
            <mxRectangle width="90" height="40" as="alternateBounds" />
          </mxGeometry>
        </mxCell>
        <mxCell id="CnyepT9j-5IPscK7m1z1-41" value="Cluster" style="shape=partialRectangle;html=1;whiteSpace=wrap;connectable=0;strokeColor=#82b366;overflow=hidden;fillColor=#d5e8d4;top=0;left=0;bottom=0;right=0;pointerEvents=1;fontSize=16;" parent="CnyepT9j-5IPscK7m1z1-39" vertex="1">
          <mxGeometry x="90" width="89" height="40" as="geometry">
            <mxRectangle width="89" height="40" as="alternateBounds" />
          </mxGeometry>
        </mxCell>
        <mxCell id="CnyepT9j-5IPscK7m1z1-42" value="Cluster" style="shape=partialRectangle;html=1;whiteSpace=wrap;connectable=0;strokeColor=#82b366;overflow=hidden;fillColor=#d5e8d4;top=0;left=0;bottom=0;right=0;pointerEvents=1;fontSize=16;" parent="CnyepT9j-5IPscK7m1z1-39" vertex="1">
          <mxGeometry x="179" width="90" height="40" as="geometry">
            <mxRectangle width="90" height="40" as="alternateBounds" />
          </mxGeometry>
        </mxCell>
        <mxCell id="CnyepT9j-5IPscK7m1z1-43" value="Cluster" style="shape=partialRectangle;html=1;whiteSpace=wrap;connectable=0;strokeColor=#82b366;overflow=hidden;fillColor=#d5e8d4;top=0;left=0;bottom=0;right=0;pointerEvents=1;fontSize=16;" parent="CnyepT9j-5IPscK7m1z1-39" vertex="1">
          <mxGeometry x="269" width="90" height="40" as="geometry">
            <mxRectangle width="90" height="40" as="alternateBounds" />
          </mxGeometry>
        </mxCell>
        <mxCell id="CnyepT9j-5IPscK7m1z1-44" value="Cluster" style="shape=partialRectangle;html=1;whiteSpace=wrap;connectable=0;strokeColor=#82b366;overflow=hidden;fillColor=#d5e8d4;top=0;left=0;bottom=0;right=0;pointerEvents=1;fontSize=16;" parent="CnyepT9j-5IPscK7m1z1-39" vertex="1">
          <mxGeometry x="359" width="91" height="40" as="geometry">
            <mxRectangle width="91" height="40" as="alternateBounds" />
          </mxGeometry>
        </mxCell>
        <mxCell id="CnyepT9j-5IPscK7m1z1-49" value="" style="shape=table;startSize=0;container=1;collapsible=0;childLayout=tableLayout;fontSize=16;" parent="1" vertex="1">
          <mxGeometry x="179.5" y="860" width="441" height="40" as="geometry" />
        </mxCell>
        <mxCell id="CnyepT9j-5IPscK7m1z1-50" value="" style="shape=tableRow;horizontal=0;startSize=0;swimlaneHead=0;swimlaneBody=0;strokeColor=inherit;top=0;left=0;bottom=0;right=0;collapsible=0;dropTarget=0;fillColor=none;points=[[0,0.5],[1,0.5]];portConstraint=eastwest;fontSize=16;" parent="CnyepT9j-5IPscK7m1z1-49" vertex="1">
          <mxGeometry width="441" height="40" as="geometry" />
        </mxCell>
        <mxCell id="CnyepT9j-5IPscK7m1z1-51" value="Cluster Group" style="shape=partialRectangle;html=1;whiteSpace=wrap;connectable=0;strokeColor=#36393d;overflow=hidden;fillColor=#ffcc99;top=0;left=0;bottom=0;right=0;pointerEvents=1;fontSize=16;" parent="CnyepT9j-5IPscK7m1z1-50" vertex="1">
          <mxGeometry width="148" height="40" as="geometry">
            <mxRectangle width="148" height="40" as="alternateBounds" />
          </mxGeometry>
        </mxCell>
        <mxCell id="CnyepT9j-5IPscK7m1z1-52" value="Cluster Group" style="shape=partialRectangle;html=1;whiteSpace=wrap;connectable=0;strokeColor=#36393d;overflow=hidden;fillColor=#ffcc99;top=0;left=0;bottom=0;right=0;pointerEvents=1;fontSize=16;" parent="CnyepT9j-5IPscK7m1z1-50" vertex="1">
          <mxGeometry x="148" width="145" height="40" as="geometry">
            <mxRectangle width="145" height="40" as="alternateBounds" />
          </mxGeometry>
        </mxCell>
        <mxCell id="CnyepT9j-5IPscK7m1z1-53" value="Cluster Group" style="shape=partialRectangle;html=1;whiteSpace=wrap;connectable=0;strokeColor=#36393d;overflow=hidden;fillColor=#ffcc99;top=0;left=0;bottom=0;right=0;pointerEvents=1;fontSize=16;" parent="CnyepT9j-5IPscK7m1z1-50" vertex="1">
          <mxGeometry x="293" width="148" height="40" as="geometry">
            <mxRectangle width="148" height="40" as="alternateBounds" />
          </mxGeometry>
        </mxCell>
        <mxCell id="CnyepT9j-5IPscK7m1z1-56" value="" style="shape=table;startSize=0;container=1;collapsible=0;childLayout=tableLayout;fontSize=16;" parent="1" vertex="1">
          <mxGeometry x="267" y="960" width="293" height="40" as="geometry" />
        </mxCell>
        <mxCell id="CnyepT9j-5IPscK7m1z1-57" value="" style="shape=tableRow;horizontal=0;startSize=0;swimlaneHead=0;swimlaneBody=0;strokeColor=inherit;top=0;left=0;bottom=0;right=0;collapsible=0;dropTarget=0;fillColor=none;points=[[0,0.5],[1,0.5]];portConstraint=eastwest;fontSize=16;" parent="CnyepT9j-5IPscK7m1z1-56" vertex="1">
          <mxGeometry width="293" height="40" as="geometry" />
        </mxCell>
        <mxCell id="CnyepT9j-5IPscK7m1z1-58" value="LOD0" style="shape=partialRectangle;html=1;whiteSpace=wrap;connectable=0;strokeColor=#9673a6;overflow=hidden;fillColor=#e1d5e7;top=0;left=0;bottom=0;right=0;pointerEvents=1;fontSize=16;" parent="CnyepT9j-5IPscK7m1z1-57" vertex="1">
          <mxGeometry width="148" height="40" as="geometry">
            <mxRectangle width="148" height="40" as="alternateBounds" />
          </mxGeometry>
        </mxCell>
        <mxCell id="CnyepT9j-5IPscK7m1z1-59" value="LOD1" style="shape=partialRectangle;html=1;whiteSpace=wrap;connectable=0;strokeColor=#9673a6;overflow=hidden;fillColor=#e1d5e7;top=0;left=0;bottom=0;right=0;pointerEvents=1;fontSize=16;" parent="CnyepT9j-5IPscK7m1z1-57" vertex="1">
          <mxGeometry x="148" width="145" height="40" as="geometry">
            <mxRectangle width="145" height="40" as="alternateBounds" />
          </mxGeometry>
        </mxCell>
        <mxCell id="CnyepT9j-5IPscK7m1z1-61" value="" style="endArrow=classic;html=1;rounded=0;exitX=0.09;exitY=-0.033;exitDx=0;exitDy=0;exitPerimeter=0;entryX=-0.003;entryY=1.033;entryDx=0;entryDy=0;entryPerimeter=0;" parent="1" source="CnyepT9j-5IPscK7m1z1-39" target="CnyepT9j-5IPscK7m1z1-28" edge="1">
          <mxGeometry width="50" height="50" relative="1" as="geometry">
            <mxPoint x="390" y="640" as="sourcePoint" />
            <mxPoint x="440" y="590" as="targetPoint" />
          </mxGeometry>
        </mxCell>
        <mxCell id="CnyepT9j-5IPscK7m1z1-62" value="" style="endArrow=classic;html=1;rounded=0;exitX=0.293;exitY=-0.067;exitDx=0;exitDy=0;exitPerimeter=0;entryX=0.22;entryY=0.95;entryDx=0;entryDy=0;entryPerimeter=0;" parent="1" source="CnyepT9j-5IPscK7m1z1-39" target="CnyepT9j-5IPscK7m1z1-28" edge="1">
          <mxGeometry width="50" height="50" relative="1" as="geometry">
            <mxPoint x="226" y="739" as="sourcePoint" />
            <mxPoint x="179" y="681" as="targetPoint" />
          </mxGeometry>
        </mxCell>
        <mxCell id="CnyepT9j-5IPscK7m1z1-63" value="" style="endArrow=classic;html=1;rounded=0;exitX=0.293;exitY=-0.067;exitDx=0;exitDy=0;exitPerimeter=0;entryX=0.22;entryY=0.95;entryDx=0;entryDy=0;entryPerimeter=0;" parent="1" edge="1">
          <mxGeometry width="50" height="50" relative="1" as="geometry">
            <mxPoint x="396" y="730" as="sourcePoint" />
            <mxPoint x="360" y="671" as="targetPoint" />
          </mxGeometry>
        </mxCell>
        <mxCell id="CnyepT9j-5IPscK7m1z1-64" value="" style="endArrow=classic;html=1;rounded=0;exitX=0.293;exitY=-0.067;exitDx=0;exitDy=0;exitPerimeter=0;entryX=0.22;entryY=0.95;entryDx=0;entryDy=0;entryPerimeter=0;" parent="1" edge="1">
          <mxGeometry width="50" height="50" relative="1" as="geometry">
            <mxPoint x="496" y="730" as="sourcePoint" />
            <mxPoint x="460" y="671" as="targetPoint" />
          </mxGeometry>
        </mxCell>
        <mxCell id="CnyepT9j-5IPscK7m1z1-65" value="" style="endArrow=classic;html=1;rounded=0;exitX=0.897;exitY=-0.1;exitDx=0;exitDy=0;exitPerimeter=0;entryX=0.939;entryY=1.067;entryDx=0;entryDy=0;entryPerimeter=0;" parent="1" source="CnyepT9j-5IPscK7m1z1-39" target="CnyepT9j-5IPscK7m1z1-28" edge="1">
          <mxGeometry width="50" height="50" relative="1" as="geometry">
            <mxPoint x="506" y="740" as="sourcePoint" />
            <mxPoint x="470" y="681" as="targetPoint" />
          </mxGeometry>
        </mxCell>
        <mxCell id="CnyepT9j-5IPscK7m1z1-67" value="" style="endArrow=classic;html=1;rounded=0;exitX=0.09;exitY=-0.033;exitDx=0;exitDy=0;exitPerimeter=0;entryX=0.094;entryY=0.983;entryDx=0;entryDy=0;entryPerimeter=0;" parent="1" target="CnyepT9j-5IPscK7m1z1-39" edge="1">
          <mxGeometry width="50" height="50" relative="1" as="geometry">
            <mxPoint x="257" y="860" as="sourcePoint" />
            <mxPoint x="210" y="802" as="targetPoint" />
          </mxGeometry>
        </mxCell>
        <mxCell id="CnyepT9j-5IPscK7m1z1-68" value="" style="endArrow=classic;html=1;rounded=0;exitX=0.502;exitY=0.017;exitDx=0;exitDy=0;exitPerimeter=0;entryX=0.094;entryY=0.983;entryDx=0;entryDy=0;entryPerimeter=0;" parent="1" source="CnyepT9j-5IPscK7m1z1-50" edge="1">
          <mxGeometry width="50" height="50" relative="1" as="geometry">
            <mxPoint x="430" y="860" as="sourcePoint" />
            <mxPoint x="390" y="769" as="targetPoint" />
          </mxGeometry>
        </mxCell>
        <mxCell id="CnyepT9j-5IPscK7m1z1-69" value="" style="endArrow=classic;html=1;rounded=0;exitX=0.837;exitY=-0.033;exitDx=0;exitDy=0;exitPerimeter=0;entryX=0.885;entryY=0.983;entryDx=0;entryDy=0;entryPerimeter=0;" parent="1" source="CnyepT9j-5IPscK7m1z1-50" target="CnyepT9j-5IPscK7m1z1-39" edge="1">
          <mxGeometry width="50" height="50" relative="1" as="geometry">
            <mxPoint x="411" y="871" as="sourcePoint" />
            <mxPoint x="400" y="779" as="targetPoint" />
          </mxGeometry>
        </mxCell>
        <mxCell id="CnyepT9j-5IPscK7m1z1-70" value="" style="curved=1;endArrow=classic;html=1;rounded=0;entryX=0.5;entryY=-0.033;entryDx=0;entryDy=0;entryPerimeter=0;" parent="1" target="CnyepT9j-5IPscK7m1z1-50" edge="1">
          <mxGeometry width="50" height="50" relative="1" as="geometry">
            <mxPoint x="260" y="860" as="sourcePoint" />
            <mxPoint x="440" y="590" as="targetPoint" />
            <Array as="points">
              <mxPoint x="350" y="800" />
            </Array>
          </mxGeometry>
        </mxCell>
        <mxCell id="CnyepT9j-5IPscK7m1z1-72" value="" style="curved=1;endArrow=classic;html=1;rounded=0;exitX=0.173;exitY=-0.017;exitDx=0;exitDy=0;exitPerimeter=0;" parent="1" source="CnyepT9j-5IPscK7m1z1-50" edge="1">
          <mxGeometry width="50" height="50" relative="1" as="geometry">
            <mxPoint x="270" y="870" as="sourcePoint" />
            <mxPoint x="550" y="860" as="targetPoint" />
            <Array as="points">
              <mxPoint x="360" y="810" />
            </Array>
          </mxGeometry>
        </mxCell>
        <mxCell id="CnyepT9j-5IPscK7m1z1-73" value="" style="endArrow=classic;html=1;rounded=0;exitX=0.231;exitY=-0.083;exitDx=0;exitDy=0;exitPerimeter=0;entryX=0.094;entryY=0.983;entryDx=0;entryDy=0;entryPerimeter=0;" parent="1" source="CnyepT9j-5IPscK7m1z1-57" edge="1">
          <mxGeometry width="50" height="50" relative="1" as="geometry">
            <mxPoint x="307" y="991" as="sourcePoint" />
            <mxPoint x="267" y="900" as="targetPoint" />
          </mxGeometry>
        </mxCell>
        <mxCell id="CnyepT9j-5IPscK7m1z1-74" value="" style="endArrow=classic;html=1;rounded=0;exitX=0.747;exitY=-0.017;exitDx=0;exitDy=0;exitPerimeter=0;entryX=0.825;entryY=1.083;entryDx=0;entryDy=0;entryPerimeter=0;" parent="1" source="CnyepT9j-5IPscK7m1z1-57" target="CnyepT9j-5IPscK7m1z1-50" edge="1">
          <mxGeometry width="50" height="50" relative="1" as="geometry">
            <mxPoint x="498" y="960" as="sourcePoint" />
            <mxPoint x="430" y="903" as="targetPoint" />
          </mxGeometry>
        </mxCell>
        <mxCell id="CnyepT9j-5IPscK7m1z1-75" value="Child Group" style="text;html=1;align=center;verticalAlign=middle;whiteSpace=wrap;rounded=0;fontSize=15;" parent="1" vertex="1">
          <mxGeometry x="275" y="800" width="110" height="30" as="geometry" />
        </mxCell>
        <mxCell id="CnyepT9j-5IPscK7m1z1-76" value="Child Group" style="text;html=1;align=center;verticalAlign=middle;whiteSpace=wrap;rounded=0;fontSize=15;" parent="1" vertex="1">
          <mxGeometry x="414" y="800" width="110" height="30" as="geometry" />
        </mxCell>
      </root>
    </mxGraphModel>
  </diagram>
</mxfile>
